<svg xmlns="http://www.w3.org/2000/svg" width="100%" height="100%" viewBox="0 0 1600 900" preserveAspectRatio="xMidYMid meet" aria-hidden="true">
<rect width="1600" height="900" fill="#f7f7f4"/>
<rect x="50" y="50" width="1500" height="800" fill="#20262b"/>
<rect x="650" y="640" width="300" height="150" fill="#d9dee2"/>
<rect x="300" y="590" width="400" height="100" fill="#d4d9dc"/>
<rect x="300" y="320" width="100" height="370" fill="#d4d9dc"/>
<rect x="160" y="250" width="260" height="120" fill="#d4d9dc"/>
<rect x="200" y="190" width="100" height="80" fill="#d4d9dc"/>
<rect x="80" y="70" width="260" height="150" fill="#aeb8bf"/>
<line x1="98" y1="91.42857142857143" x2="322" y2="91.42857142857143" stroke="#20262b" stroke-width="5" stroke-linecap="square"/>
<line x1="98" y1="112.85714285714286" x2="322" y2="112.85714285714286" stroke="#20262b" stroke-width="5" stroke-linecap="square"/>
<line x1="98" y1="134.28571428571428" x2="322" y2="134.28571428571428" stroke="#20262b" stroke-width="5" stroke-linecap="square"/>
<line x1="98" y1="155.71428571428572" x2="322" y2="155.71428571428572" stroke="#20262b" stroke-width="5" stroke-linecap="square"/>
<line x1="98" y1="177.14285714285714" x2="322" y2="177.14285714285714" stroke="#20262b" stroke-width="5" stroke-linecap="square"/>
<line x1="98" y1="198.57142857142856" x2="322" y2="198.57142857142856" stroke="#20262b" stroke-width="5" stroke-linecap="square"/>
<rect x="900" y="700" width="470" height="90" fill="#e5e8ea"/>
<rect x="1270" y="300" width="100" height="490" fill="#e5e8ea"/>
<rect x="1180" y="250" width="260" height="120" fill="#e5e8ea"/>
<rect x="1300" y="190" width="100" height="80" fill="#e5e8ea"/>
<rect x="1260" y="70" width="260" height="150" fill="#aeb8bf"/>
<line x1="1278" y1="91.42857142857143" x2="1502" y2="91.42857142857143" stroke="#20262b" stroke-width="5" stroke-linecap="square"/>
<line x1="1278" y1="112.85714285714286" x2="1502" y2="112.85714285714286" stroke="#20262b" stroke-width="5" stroke-linecap="square"/>
<line x1="1278" y1="134.28571428571428" x2="1502" y2="134.28571428571428" stroke="#20262b" stroke-width="5" stroke-linecap="square"/>
<line x1="1278" y1="155.71428571428572" x2="1502" y2="155.71428571428572" stroke="#20262b" stroke-width="5" stroke-linecap="square"/>
<line x1="1278" y1="177.14285714285714" x2="1502" y2="177.14285714285714" stroke="#20262b" stroke-width="5" stroke-linecap="square"/>
<line x1="1278" y1="198.57142857142856" x2="1502" y2="198.57142857142856" stroke="#20262b" stroke-width="5" stroke-linecap="square"/>
<rect x="300" y="455" width="65" height="52" fill="#20262b"/>
<rect x="355" y="525" width="45" height="52" fill="#20262b"/>
</svg>
